<svg id="Layer_1" data-name="Layer 1" xmlns="http://www.w3.org/2000/svg" viewBox="0 0 585 133"><defs><style>.cls-1{fill:#fff;}</style></defs><path class="cls-1" d="M117.12,21.44H100V14a3.73,3.73,0,1,0-7.45,0v7.44H40.41V14A3.73,3.73,0,1,0,33,14v7.44H15.83a6,6,0,0,0-6,6v89.37a6,6,0,0,0,6,6H117.12a6,6,0,0,0,5.95-6V27.4A6,6,0,0,0,117.12,21.44Zm-99.8,7.45H33v4.47a3.73,3.73,0,0,0,7.45,0V28.89H92.54v4.47a3.73,3.73,0,0,0,7.45,0V28.89h15.64V43.06H38.17a2.24,2.24,0,0,0,0,4.47h77.46V96l-2.39-2.39a1.13,1.13,0,0,0-1.58,0,1.11,1.11,0,0,0,0,1.58l4,4v7.18l-7.85-7.84a1.11,1.11,0,0,0-1.58,0,1.13,1.13,0,0,0,0,1.58l9.43,9.42v5.74h-1.44l-9-9a1.12,1.12,0,1,0-1.58,1.58l7.38,7.38h-7.18L100,111.46a1.13,1.13,0,0,0-1.58,0,1.11,1.11,0,0,0,0,1.58l2.24,2.24H17.32Z"/><path class="cls-1" d="M29.24,43.06H24.77a2.24,2.24,0,1,0,0,4.47h4.47a2.24,2.24,0,0,0,0-4.47Z"/><path class="cls-1" d="M90.74,73.81,76.36,70l-8.07-12.5a2.24,2.24,0,0,0-3.76,0L56.45,70,42.08,73.81a2.22,2.22,0,0,0-1.16,3.56L50.3,88.92l-.81,14.85a2.2,2.2,0,0,0,.92,1.93,2.24,2.24,0,0,0,2.12.28l13.88-5.36L80.29,106a2.23,2.23,0,0,0,3-2.21l-.81-14.85L91.9,77.37a2.23,2.23,0,0,0-1.16-3.56Zm-12.24,13A2.23,2.23,0,0,0,78,88.3l.66,12.27L67.21,96.14a2.24,2.24,0,0,0-1.61,0l-11.46,4.43.67-12.27a2.24,2.24,0,0,0-.5-1.53l-7.75-9.53,11.88-3.15a2.31,2.31,0,0,0,1.3-1l6.67-10.32,6.67,10.32a2.25,2.25,0,0,0,1.3.94l11.88,3.16Z"/><path class="cls-1" d="M164,53.35v7.56h8.58v5H164V81.13a5.48,5.48,0,0,0,.54,2.79q.54.87,2.58.87a12.24,12.24,0,0,0,4.38-.9l1.8,4.68a20.69,20.69,0,0,1-9.45,2.34c-3.22,0-5.4-.7-6.54-2.08a9.21,9.21,0,0,1-1.71-6V66h-2.7l-.66-3.66a10,10,0,0,1,4-2.28q.72-4.92,3.42-6.66Z"/><path class="cls-1" d="M189.24,91.39q-7.11,0-10.53-3.78c-2.28-2.53-3.42-6.33-3.42-11.44s1.27-9,3.81-11.69,6.19-4.05,11-4.05,8.29,1.2,10.59,3.6,3.45,6.14,3.45,11.25-1.29,9-3.87,11.88S194,91.39,189.24,91.39Zm-5.31-15.72q0,9.6,5.76,9.6A4.81,4.81,0,0,0,194,83.08q1.41-2.19,1.41-7.17,0-9.36-5.88-9.36a4.76,4.76,0,0,0-4.26,2.07Q183.93,70.69,183.93,75.67Z"/><path class="cls-1" d="M222.75,48.31a29.42,29.42,0,0,1,6.54-.78q3.12,0,5.34.18v36a12.23,12.23,0,0,1,3.3,1v4.73a19.14,19.14,0,0,1-9.12,1.93,3.52,3.52,0,0,1-1.17-1.08,3,3,0,0,1-.63-1.5,11.45,11.45,0,0,1-3.42,1.83,12.5,12.5,0,0,1-4.14.75c-4.32,0-7.45-1.18-9.39-3.51s-2.91-6.17-2.91-11.49q0-9.06,4.44-12.72a14.52,14.52,0,0,1,9.6-3.24,21.69,21.69,0,0,1,5,.6V55.09a8.9,8.9,0,0,1-4.08-2.16Zm-2,37a7.59,7.59,0,0,0,5.52-2V67.15a22,22,0,0,0-5.22-.6A4.16,4.16,0,0,0,217,69a16.65,16.65,0,0,0-1.23,7.26q0,4.83,1.2,6.93A4,4,0,0,0,220.71,85.27Z"/><path class="cls-1" d="M241.65,65.35q0-.9.06-1.92a25,25,0,0,1,12-3q6.42,0,9.21,2.43t2.79,8.06V83.71a13.5,13.5,0,0,1,3.3,1V90q-3.06,1.44-8.76,1.44a22.09,22.09,0,0,1-1-3.78q-2.58,3.78-9.36,3.78A10.43,10.43,0,0,1,243,89a7.76,7.76,0,0,1-2.85-6.35,7.93,7.93,0,0,1,2.67-6.33c1.78-1.54,4.43-2.32,8-2.32h6.54V71.17q0-4.68-5-4.68a10.87,10.87,0,0,0-3.06.36,11.47,11.47,0,0,1-.72,3.9h-5.88A12.38,12.38,0,0,1,241.65,65.35Zm10.8,19.92a6.53,6.53,0,0,0,4.86-1.81V78.54h-4.2c-2.88,0-4.32,1.11-4.32,3.31a3.39,3.39,0,0,0,.93,2.46A3.63,3.63,0,0,0,252.45,85.27Z"/><path class="cls-1" d="M277.83,97.87q1.08,0,2.31-2a13.61,13.61,0,0,0,1.71-4.78L272,67.81a8.17,8.17,0,0,1-4-2.28l.6-4.62h13.8l.6,4.62a6.7,6.7,0,0,1-2.64,1.74l3.3,9.06a26.91,26.91,0,0,1,1.5,5.58l.18.84h.84a34.41,34.41,0,0,1,1.68-6.3l3.18-8.88a6.82,6.82,0,0,1-3.12-2l.6-4.62h13.2l.6,4.62a8.27,8.27,0,0,1-4,2.34l-9.9,23.4c-1.88,4.44-3.32,7.29-4.32,8.58a8.65,8.65,0,0,1-7.35,3.54q-4.71,0-7.17-2.47a11.71,11.71,0,0,1-.06-1.19A14.47,14.47,0,0,1,271,93.49h5a10,10,0,0,1,1,4.38Z"/><path class="cls-1" d="M304.29,53.53q0-4.56,5.1-4.56t5.1,4.56a14.42,14.42,0,0,1-2,7.47,17.52,17.52,0,0,1-4.92,5.49L305,64.93a12.55,12.55,0,0,0,2-6.48,6.37,6.37,0,0,0-.06-.9A3.55,3.55,0,0,1,305,56.08,4.45,4.45,0,0,1,304.29,53.53Z"/><path class="cls-1" d="M325.17,65.83q-4,0-4,2.34t4.14,3.29l4.74,1.27q7.32,1.92,7.32,8.46a9.46,9.46,0,0,1-3.15,7.35q-3.15,2.85-10,2.85t-10.71-1.93c0-.43-.06-.87-.06-1.31a13.1,13.1,0,0,1,1.32-5.94h5a9.2,9.2,0,0,1,1,3,12.53,12.53,0,0,0,3.42.36q5.28,0,5.28-3a2,2,0,0,0-.72-1.59A7.91,7.91,0,0,0,326,79.75l-4.74-1.38a12.79,12.79,0,0,1-5.7-3q-2-2-2-5.93A7.87,7.87,0,0,1,316.65,63q3.18-2.52,9.09-2.52a25.47,25.47,0,0,1,10,1.74q.06.6.06,1.2a12.7,12.7,0,0,1-1.32,5.76h-4.92a8.57,8.57,0,0,1-1-2.88A13.81,13.81,0,0,0,325.17,65.83Z"/><path class="cls-1" d="M353.61,48.31a27.71,27.71,0,0,1,6.24-.78q2.88,0,4.86.18v15a13.34,13.34,0,0,1,3.84-1.62,16.3,16.3,0,0,1,4.26-.66q5.94,0,8.22,2.88t2.28,8.76V84.25a8.07,8.07,0,0,1,3.3,2l-.6,4.62h-13.8l-.6-4.62a7.08,7.08,0,0,1,3.3-2V72.37q0-3.24-1.05-4.35t-3.81-1.11a8.84,8.84,0,0,0-5.34,1.92V84.25a8.07,8.07,0,0,1,3.3,2l-.6,4.62h-13.8l-.6-4.62a7.08,7.08,0,0,1,3.3-2V55a7.75,7.75,0,0,1-3.3-2Z"/><path class="cls-1" d="M402.6,91.39q-7.11,0-10.53-3.78c-2.28-2.53-3.42-6.33-3.42-11.44s1.27-9,3.81-11.69,6.19-4.05,11-4.05S411.7,61.63,414,64s3.45,6.14,3.45,11.25-1.29,9-3.87,11.88S407.34,91.39,402.6,91.39Zm-5.31-15.72q0,9.6,5.76,9.6a4.81,4.81,0,0,0,4.35-2.19q1.41-2.19,1.41-7.17,0-9.36-5.88-9.36a4.76,4.76,0,0,0-4.26,2.07Q397.29,70.69,397.29,75.67Z"/><path class="cls-1" d="M420.39,48.31a27.71,27.71,0,0,1,6.24-.78q2.88,0,4.86.18V84.25a8.07,8.07,0,0,1,3.3,2l-.6,4.62h-13.8l-.6-4.62a7.08,7.08,0,0,1,3.3-2V55a7.75,7.75,0,0,1-3.3-2Z"/><path class="cls-1" d="M438,60.91a27.71,27.71,0,0,1,6.24-.78q2.88,0,4.86.18V84.25a8.07,8.07,0,0,1,3.3,2l-.6,4.62H438l-.6-4.62a7.08,7.08,0,0,1,3.3-2V67.57a7.75,7.75,0,0,1-3.3-2Zm6.81-4.14q-5,0-5-4.53t5-4.53q5,0,5,4.53T444.78,56.77Z"/><path class="cls-1" d="M470.37,48.31a29.42,29.42,0,0,1,6.54-.78q3.12,0,5.34.18v36a12.23,12.23,0,0,1,3.3,1v4.73a19.14,19.14,0,0,1-9.12,1.93,3.52,3.52,0,0,1-1.17-1.08,3,3,0,0,1-.63-1.5,11.45,11.45,0,0,1-3.42,1.83,12.5,12.5,0,0,1-4.14.75c-4.32,0-7.45-1.18-9.39-3.51s-2.91-6.17-2.91-11.49q0-9.06,4.44-12.72a14.52,14.52,0,0,1,9.6-3.24,21.69,21.69,0,0,1,5,.6V55.09a8.9,8.9,0,0,1-4.08-2.16Zm-2,37a7.59,7.59,0,0,0,5.52-2V67.15a22,22,0,0,0-5.22-.6,4.16,4.16,0,0,0-4,2.43,16.65,16.65,0,0,0-1.23,7.26q0,4.83,1.2,6.93A4,4,0,0,0,468.33,85.27Z"/><path class="cls-1" d="M489.27,65.35q0-.9.06-1.92a25,25,0,0,1,12-3q6.42,0,9.21,2.43t2.79,8.06V83.71a13.5,13.5,0,0,1,3.3,1V90q-3.06,1.44-8.76,1.44a22.09,22.09,0,0,1-1-3.78q-2.58,3.78-9.36,3.78A10.43,10.43,0,0,1,490.62,89a7.76,7.76,0,0,1-2.85-6.35,7.93,7.93,0,0,1,2.67-6.33c1.78-1.54,4.43-2.32,7.95-2.32h6.54V71.17q0-4.68-5-4.68a10.87,10.87,0,0,0-3.06.36,11.47,11.47,0,0,1-.72,3.9h-5.88A12.38,12.38,0,0,1,489.27,65.35Zm10.8,19.92a6.53,6.53,0,0,0,4.86-1.81V78.54h-4.2c-2.88,0-4.32,1.11-4.32,3.31a3.39,3.39,0,0,0,.93,2.46A3.63,3.63,0,0,0,500.07,85.27Z"/><path class="cls-1" d="M525.45,97.87q1.08,0,2.31-2a13.61,13.61,0,0,0,1.71-4.78l-9.84-23.27a8.17,8.17,0,0,1-4-2.28l.6-4.62h13.8l.6,4.62A6.7,6.7,0,0,1,528,67.27l3.3,9.06a26.91,26.91,0,0,1,1.5,5.58l.18.84h.84a34.41,34.41,0,0,1,1.68-6.3l3.18-8.88a6.82,6.82,0,0,1-3.12-2l.6-4.62h13.2l.6,4.62a8.27,8.27,0,0,1-4,2.34l-9.9,23.4c-1.88,4.44-3.32,7.29-4.32,8.58a8.65,8.65,0,0,1-7.35,3.54q-4.71,0-7.17-2.47a11.71,11.71,0,0,1-.06-1.19,14.47,14.47,0,0,1,1.38-6.24h5a10,10,0,0,1,1,4.38Z"/><path class="cls-1" d="M562.89,65.83q-4,0-4,2.34t4.14,3.29l4.74,1.27q7.32,1.92,7.32,8.46A9.46,9.46,0,0,1,572,88.54q-3.15,2.85-10,2.85t-10.71-1.93c0-.43-.06-.87-.06-1.31a13.1,13.1,0,0,1,1.32-5.94h5a9.2,9.2,0,0,1,1,3,12.53,12.53,0,0,0,3.42.36q5.28,0,5.28-3a2,2,0,0,0-.72-1.59,7.91,7.91,0,0,0-2.82-1.23l-4.74-1.38a12.79,12.79,0,0,1-5.7-3q-2-2-2-5.93A7.87,7.87,0,0,1,554.37,63q3.18-2.52,9.09-2.52a25.47,25.47,0,0,1,10,1.74q.06.6.06,1.2a12.7,12.7,0,0,1-1.32,5.76h-4.92a8.57,8.57,0,0,1-1-2.88A13.81,13.81,0,0,0,562.89,65.83Z"/></svg>