<svg id="Layer_1" data-name="Layer 1" xmlns="http://www.w3.org/2000/svg" viewBox="0 0 386.65 169.32"><defs><style>.cls-1{fill:#fff;}</style></defs><path class="cls-1" d="M225.7,19.84H214.36V14.91a2.47,2.47,0,1,0-4.93,0v4.93H174.92V14.91a2.47,2.47,0,1,0-4.93,0v4.93H158.65a4,4,0,0,0-3.94,3.94V82.94a4,4,0,0,0,3.94,4h67a4,4,0,0,0,4-4V23.78A4,4,0,0,0,225.7,19.84Zm-66.06,4.93H170v3a2.47,2.47,0,0,0,4.93,0v-3h34.51v3a2.47,2.47,0,0,0,4.93,0v-3h10.36v9.38H173.44a1.48,1.48,0,0,0,0,3h51.28V69.22l-1.58-1.58a.74.74,0,0,0-1,1l2.63,2.62v4.75l-5.19-5.19a.76.76,0,0,0-1.05,0,.74.74,0,0,0,0,1l6.24,6.24V82h-.95L217.84,76a.74.74,0,0,0-1.05,1L221.67,82h-4.75l-2.53-2.53a.73.73,0,0,0-1,0,.74.74,0,0,0,0,1L214.83,82H159.64Z"/><path class="cls-1" d="M167.53,34.15h-3a1.48,1.48,0,1,0,0,3h3a1.48,1.48,0,0,0,0-3Z"/><path class="cls-1" d="M208.24,54.5,198.73,52l-5.35-8.28a1.49,1.49,0,0,0-2.49,0L185.55,52,176,54.5a1.49,1.49,0,0,0-.77,2.37l6.21,7.64-.53,9.83a1.48,1.48,0,0,0,2,1.46l9.19-3.55,9.19,3.55a1.47,1.47,0,0,0,2-1.46l-.53-9.83L209,56.87a1.49,1.49,0,0,0-.77-2.37Zm-8.1,8.58a1.51,1.51,0,0,0-.33,1l.45,8.12-7.59-2.93a1.52,1.52,0,0,0-1.07,0L184,72.22l.44-8.12a1.47,1.47,0,0,0-.33-1L179,56.78l7.86-2.09a1.52,1.52,0,0,0,.86-.63l4.42-6.83,4.41,6.83a1.51,1.51,0,0,0,.87.63l7.86,2.09Z"/><path class="cls-1" d="M15.63,114.55v6.68h7.59v4.46H15.63v13.42a4.86,4.86,0,0,0,.48,2.47c.32.51,1.08.76,2.28.76a10.82,10.82,0,0,0,3.87-.79l1.59,4.14a18.28,18.28,0,0,1-8.35,2.07c-2.85,0-4.78-.62-5.78-1.84a8.16,8.16,0,0,1-1.51-5.33v-14.9H5.82l-.58-3.24a8.79,8.79,0,0,1,3.5-2q.63-4.35,3-5.89Z"/><path class="cls-1" d="M38,148.18q-6.29,0-9.31-3.34t-3-10.11q0-6.76,3.36-10.34t9.68-3.58q6.31,0,9.37,3.18t3,10q0,6.76-3.43,10.5T38,148.18Zm-4.7-13.9q0,8.49,5.1,8.49a4.25,4.25,0,0,0,3.84-1.94q1.25-1.94,1.25-6.34,0-8.27-5.2-8.27a4.22,4.22,0,0,0-3.77,1.83Q33.3,129.88,33.29,134.28Z"/><path class="cls-1" d="M67.61,110.1a26,26,0,0,1,5.78-.69c1.84,0,3.42,0,4.72.15v31.83a11,11,0,0,1,2.92.9v4.19a17,17,0,0,1-8.06,1.7,3.15,3.15,0,0,1-1-1,2.6,2.6,0,0,1-.55-1.32,10.26,10.26,0,0,1-3,1.62,10.81,10.81,0,0,1-3.66.66c-3.81,0-6.58-1-8.3-3.1s-2.57-5.46-2.57-10.16q0-8,3.93-11.25a12.8,12.8,0,0,1,8.48-2.86,19.41,19.41,0,0,1,4.46.53v-5.25a7.91,7.91,0,0,1-3.61-1.91Zm-1.8,32.67a6.73,6.73,0,0,0,4.88-1.8V126.75a19.63,19.63,0,0,0-4.62-.53,3.67,3.67,0,0,0-3.52,2.15,14.63,14.63,0,0,0-1.09,6.42c0,2.84.35,4.89,1.06,6.12A3.53,3.53,0,0,0,65.81,142.77Z"/><path class="cls-1" d="M84.32,125.16c0-.53,0-1.1.05-1.7A22.06,22.06,0,0,1,95,120.81c3.78,0,6.5.72,8.14,2.15s2.47,3.81,2.47,7.13v11.3a12.24,12.24,0,0,1,2.92.9v4.62a18.75,18.75,0,0,1-7.75,1.27,20.06,20.06,0,0,1-.9-3.34q-2.28,3.34-8.27,3.34a9.28,9.28,0,0,1-6.08-2.07A6.88,6.88,0,0,1,83,140.49a7,7,0,0,1,2.36-5.6q2.37-2,7-2h5.78V130.3c0-2.75-1.46-4.13-4.4-4.13a9.23,9.23,0,0,0-2.7.32,10.41,10.41,0,0,1-.64,3.44h-5.2A10.94,10.94,0,0,1,84.32,125.16Zm9.55,17.61a5.8,5.8,0,0,0,4.29-1.59v-4.35H94.45q-3.83,0-3.82,2.92a3,3,0,0,0,.82,2.17A3.21,3.21,0,0,0,93.87,142.77Z"/><path class="cls-1" d="M116.3,153.91c.64,0,1.32-.59,2-1.78a12.11,12.11,0,0,0,1.51-4.22l-8.7-20.58a7.17,7.17,0,0,1-3.5-2l.53-4.09h12.2l.53,4.09a6,6,0,0,1-2.33,1.54l2.91,8a23.63,23.63,0,0,1,1.33,4.93l.16.74h.74a30.07,30.07,0,0,1,1.49-5.57l2.81-7.85a6,6,0,0,1-2.76-1.8l.53-4.09h11.67l.53,4.09a7.43,7.43,0,0,1-3.5,2.07l-8.75,20.68a40.86,40.86,0,0,1-3.82,7.59,7.68,7.68,0,0,1-6.5,3.13q-4.17,0-6.34-2.18a9.29,9.29,0,0,1,0-1.06,12.71,12.71,0,0,1,1.22-5.51h4.4a8.76,8.76,0,0,1,.9,3.87Z"/><path class="cls-1" d="M139.69,114.71c0-2.69,1.51-4,4.51-4s4.51,1.34,4.51,4a12.74,12.74,0,0,1-1.8,6.6,15.36,15.36,0,0,1-4.35,4.86l-2.23-1.38a11.1,11.1,0,0,0,1.75-5.73,6.73,6.73,0,0,0-.05-.8,3.1,3.1,0,0,1-1.67-1.3A3.85,3.85,0,0,1,139.69,114.71Z"/><path class="cls-1" d="M158.15,125.58c-2.33,0-3.5.69-3.5,2.07s1.22,2.28,3.66,2.92l4.19,1.11q6.48,1.71,6.47,7.48a8.36,8.36,0,0,1-2.78,6.5q-2.79,2.52-8.86,2.52c-4.05,0-7.2-.57-9.47-1.7,0-.39-.05-.78-.05-1.16a11.59,11.59,0,0,1,1.17-5.26h4.4a8.13,8.13,0,0,1,.9,2.66,11.24,11.24,0,0,0,3,.31c3.12,0,4.67-.88,4.67-2.65a1.79,1.79,0,0,0-.63-1.4,7,7,0,0,0-2.5-1.09l-4.19-1.22a11.41,11.41,0,0,1-5-2.68,7.05,7.05,0,0,1-1.8-5.25,7,7,0,0,1,2.81-5.7c1.88-1.49,4.55-2.23,8-2.23a22.45,22.45,0,0,1,8.83,1.54c0,.35,0,.71,0,1.06a11.17,11.17,0,0,1-1.17,5.09H162a7.5,7.5,0,0,1-.91-2.55A12.58,12.58,0,0,0,158.15,125.58Z"/><path class="cls-1" d="M183.29,110.1a24.49,24.49,0,0,1,5.52-.69c1.7,0,3.13,0,4.3.15v13.27a11.61,11.61,0,0,1,3.39-1.44,14.32,14.32,0,0,1,3.77-.58q5.25,0,7.26,2.55t2,7.74v10.77a7.18,7.18,0,0,1,2.92,1.8l-.53,4.09h-12.2l-.53-4.09a6.21,6.21,0,0,1,2.91-1.8v-10.5c0-1.91-.31-3.2-.92-3.85a4.6,4.6,0,0,0-3.37-1,7.75,7.75,0,0,0-4.72,1.7v13.63a7.13,7.13,0,0,1,2.91,1.8l-.53,4.09h-12.2l-.53-4.09a6.31,6.31,0,0,1,2.92-1.8V116a6.8,6.8,0,0,1-2.92-1.8Z"/><path class="cls-1" d="M226.6,148.18q-6.28,0-9.31-3.34t-3-10.11q0-6.76,3.37-10.34t9.68-3.58q6.31,0,9.36,3.18t3,10q0,6.76-3.42,10.5T226.6,148.18Zm-4.69-13.9q0,8.49,5.09,8.49a4.28,4.28,0,0,0,3.85-1.94q1.25-1.94,1.24-6.34,0-8.27-5.2-8.27a4.2,4.2,0,0,0-3.76,1.83C222.31,129.27,221.91,131.35,221.91,134.28Z"/><path class="cls-1" d="M242.33,110.1a24.48,24.48,0,0,1,5.51-.69c1.7,0,3.13,0,4.3.15v32.31a7.18,7.18,0,0,1,2.92,1.8l-.53,4.09h-12.2l-.53-4.09a6.2,6.2,0,0,1,2.92-1.8V116a6.74,6.74,0,0,1-2.92-1.8Z"/><path class="cls-1" d="M257.87,121.23a24.45,24.45,0,0,1,5.52-.68q2.53,0,4.29.15v21.17a7.18,7.18,0,0,1,2.92,1.8l-.53,4.09h-12.2l-.53-4.09a6.25,6.25,0,0,1,2.92-1.8V127.12a6.8,6.8,0,0,1-2.92-1.8Zm6-3.66q-4.42,0-4.43-4t4.43-4q4.42,0,4.43,4T263.89,117.57Z"/><path class="cls-1" d="M286.51,110.1a26,26,0,0,1,5.78-.69c1.84,0,3.41,0,4.72.15v31.83a11.07,11.07,0,0,1,2.92.9v4.19a17,17,0,0,1-8.06,1.7,3.06,3.06,0,0,1-1-1,2.6,2.6,0,0,1-.55-1.32,10.26,10.26,0,0,1-3,1.62,10.81,10.81,0,0,1-3.66.66c-3.81,0-6.58-1-8.3-3.1s-2.57-5.46-2.57-10.16q0-8,3.93-11.25a12.8,12.8,0,0,1,8.48-2.86,19.41,19.41,0,0,1,4.46.53v-5.25a7.91,7.91,0,0,1-3.61-1.91Zm-1.8,32.67a6.73,6.73,0,0,0,4.88-1.8V126.75a19.63,19.63,0,0,0-4.62-.53,3.67,3.67,0,0,0-3.52,2.15,14.63,14.63,0,0,0-1.09,6.42c0,2.84.35,4.89,1.06,6.12A3.53,3.53,0,0,0,284.71,142.77Z"/><path class="cls-1" d="M303.22,125.16c0-.53,0-1.1,0-1.7a22.06,22.06,0,0,1,10.61-2.65c3.78,0,6.5.72,8.14,2.15s2.47,3.81,2.47,7.13v11.3a12.24,12.24,0,0,1,2.92.9v4.62a18.75,18.75,0,0,1-7.75,1.27,20.06,20.06,0,0,1-.9-3.34q-2.28,3.34-8.27,3.34a9.28,9.28,0,0,1-6.08-2.07,6.88,6.88,0,0,1-2.52-5.62,7,7,0,0,1,2.36-5.6q2.37-2,7-2h5.78V130.3c0-2.75-1.46-4.13-4.4-4.13a9.23,9.23,0,0,0-2.7.32,10.41,10.41,0,0,1-.64,3.44h-5.2A10.94,10.94,0,0,1,303.22,125.16Zm9.55,17.61a5.8,5.8,0,0,0,4.29-1.59v-4.35h-3.71q-3.83,0-3.82,2.92a3,3,0,0,0,.82,2.17A3.21,3.21,0,0,0,312.77,142.77Z"/><path class="cls-1" d="M335.2,153.91c.64,0,1.32-.59,2.05-1.78a12.11,12.11,0,0,0,1.51-4.22l-8.7-20.58a7.17,7.17,0,0,1-3.5-2l.53-4.09h12.2l.53,4.09a6,6,0,0,1-2.34,1.54l2.92,8a23.63,23.63,0,0,1,1.33,4.93l.16.74h.74a30.07,30.07,0,0,1,1.49-5.57l2.81-7.85a6,6,0,0,1-2.76-1.8l.53-4.09h11.67l.53,4.09a7.43,7.43,0,0,1-3.5,2.07l-8.75,20.68a40.86,40.86,0,0,1-3.82,7.59,7.68,7.68,0,0,1-6.5,3.13q-4.17,0-6.34-2.18a9.29,9.29,0,0,1-.05-1.06,12.71,12.71,0,0,1,1.22-5.51h4.4a8.76,8.76,0,0,1,.9,3.87Z"/><path class="cls-1" d="M368.3,125.58c-2.33,0-3.5.69-3.5,2.07s1.22,2.28,3.66,2.92l4.19,1.11q6.48,1.71,6.47,7.48a8.39,8.39,0,0,1-2.78,6.5q-2.79,2.52-8.86,2.52t-9.47-1.7c0-.39-.05-.78-.05-1.16a11.59,11.59,0,0,1,1.17-5.26h4.4a8.13,8.13,0,0,1,.9,2.66,11.24,11.24,0,0,0,3,.31q4.67,0,4.67-2.65a1.77,1.77,0,0,0-.64-1.4,6.87,6.87,0,0,0-2.49-1.09l-4.19-1.22a11.3,11.3,0,0,1-5-2.68,7.05,7.05,0,0,1-1.8-5.25,7,7,0,0,1,2.81-5.7q2.81-2.24,8-2.23a22.45,22.45,0,0,1,8.83,1.54c0,.35.05.71.05,1.06a11.17,11.17,0,0,1-1.17,5.09h-4.35a7.48,7.48,0,0,1-.9-2.55A12.58,12.58,0,0,0,368.3,125.58Z"/></svg>